<?xml version="1.0" encoding="UTF-8"?>
<svg width="319px" height="60px" viewBox="0 0 319 60" version="1.1" xmlns="http://www.w3.org/2000/svg" xmlns:xlink="http://www.w3.org/1999/xlink">
    <!-- Generator: Sketch 48.2 (47327) - http://www.bohemiancoding.com/sketch -->
    <title>kwara - GlyphWordmark</title>
    <desc>Created with Sketch.</desc>
    <defs></defs>
    <g id="kwara---Placeholder-Page" stroke="none" stroke-width="1" fill="none" fill-rule="evenodd" transform="translate(-96.000000, -612.000000)">
        <g id="Left" fill="#FAF6F5">
            <g id="kwara---GlyphWordmark" transform="translate(96.000000, 612.000000)">
                <path d="M308.239928,58.8227848 L308.239928,52.556962 C308.239928,55.6708861 304.171633,59.6582278 296.833492,59.6582278 C290.75006,59.6582278 285.00882,57 281.396782,52.7848101 C278.20298,49.1012658 276.149821,44.0886076 276.149821,38.5822785 C276.149821,26.6202532 285.084863,17.4303797 296.225149,17.4303797 C303.981526,17.4303797 308.049821,21.4556962 308.201907,24.5316456 L308.201907,18.2658228 L318.771871,18.2658228 L318.771871,58.8227848 L308.239928,58.8227848 Z M307.403456,44.8860759 L307.403456,32.7721519 C305.122169,29.7721519 301.510131,27.7594937 297.28975,27.7594937 C290.864124,27.7594937 286.719785,33.0379747 286.719785,38.8860759 C286.719785,45.2278481 291.358403,49.9367089 297.517878,49.9367089 C301.662217,49.9367089 305.274255,47.9240506 307.403456,44.8860759 Z M269.153874,18.4936709 C270.750775,18.4936709 271.701311,18.6455696 272.879976,18.835443 L271.625268,28.9746835 C270.864839,28.7088608 269.267938,28.556962 267.671037,28.556962 C262.842312,28.556962 259.078188,31.9746835 257.709416,34.4050633 L257.709416,59.9240506 L246.721216,59.9240506 L246.721216,19.3291139 L257.29118,19.3291139 L257.29118,25.5949367 C257.253159,22.2911392 261.815733,18.4936709 269.153874,18.4936709 Z M225.885459,58.9746835 L225.885459,52.7088608 C225.885459,55.8227848 221.817163,59.8101266 214.479023,59.8101266 C208.39559,59.8101266 202.65435,57.1518987 199.042312,52.9367089 C195.84851,49.2531646 193.795352,44.2405063 193.795352,38.7341772 C193.795352,26.7721519 202.730393,17.5822785 213.870679,17.5822785 C221.627056,17.5822785 225.695352,21.6075949 225.847437,24.6835443 L225.847437,18.4177215 L236.417402,18.4177215 L236.417402,58.9746835 L225.885459,58.9746835 Z M224.744815,44.8860759 L224.744815,32.7721519 C222.463528,29.7721519 218.85149,27.7594937 214.631108,27.7594937 C208.205483,27.7594937 204.061144,33.0379747 204.061144,38.8860759 C204.061144,45.2278481 208.699762,49.9367089 214.859237,49.9367089 C219.003576,49.9367089 222.653635,47.9240506 224.744815,44.8860759 Z M157.028605,36.1518987 L146.724791,59.7341772 L139.120501,59.7341772 L128.1323,33.8734177 L139.120501,33.835443 L142.884625,42.835443 L151.439452,23.2025316 L162.541716,23.2405063 L170.982479,42.835443 L181.020143,19.1772152 L192.084386,19.1772152 L174.860667,59.7341772 L167.256377,59.7341772 L157.028605,36.1518987 Z M126.801549,19.0253165 L106.802265,37.2531646 L129.348987,59.5822785 L114.558641,59.5822785 L97.2588796,42 L97.2588796,59.6202532 L86.2706794,59.6202532 L86.2706794,0.227848101 L97.2588796,0.227848101 L97.2588796,32.164557 L111.364839,19.0253165 L126.801549,19.0253165 Z" id="Shape"></path>
                <path d="M42.5840286,44.9620253 C47.3747318,40.5949367 49.3518474,34.2531646 48.7435042,28.2911392 C48.3632896,24.4556962 46.7663886,19.6708861 44.0668653,16.5949367 C39.8464839,11.8481013 33.8010727,10.4050633 27.9077473,11.164557 C24.1056019,11.6582278 19.505006,12.6455696 16.3872467,15.4556962 C11.5965435,19.8227848 9.61942789,24.3797468 10.2277712,30.3417722 C10.8361144,36.3037975 11.4444577,40.1772152 14.1439809,43.2151899 C18.0601907,47.6582278 24.2576877,49.7468354 29.7707986,49.4050633 C35.3219309,49.0253165 39.1620977,48.0759494 42.5840286,44.9620253 Z M29.3525626,58.9367089 C22.6988081,58.9367089 17.5659118,56.2025316 11.2923719,51.1139241 C5.01883194,46.0253165 0.342193087,37.6329114 0.342193087,28.9746835 C0.342193087,22.9746835 3.38390942,18.1898734 8.44076281,11.164557 C13.4976162,4.13924051 19.9612634,1.17721519 29.3525626,1.17721519 C35.3979738,1.17721519 41.3293206,4.67088608 45.8918951,7.89873418 C53.001907,12.9113924 58.1348033,20.3924051 58.1348033,29.6962025 C58.1348033,35.6582278 55.2451728,42.4177215 52.0133492,46.9367089 C46.9564958,54.0379747 38.7438617,58.9367089 29.3525626,58.9367089 Z" id="Shape"></path>
            </g>
        </g>
    </g>
</svg>